<svg xmlns="http://www.w3.org/2000/svg" viewBox="0 0 569.58 556.98" height="200">
  <defs>
    <style>
      .cls-1 {
        fill: #e3e4e6;
      }
    </style>
  </defs>
  <title>Asset 20</title>
  <g id="Layer_2" data-name="Layer 2">
    <g id="Layer_3" data-name="Layer 3">
      <path class="cls-1"
        d="M281.3,113.91c3,0,5.81.24,8.75.31a380,380,0,0,1,57.34,5.36,64.09,64.09,0,0,0-57.34-49.44V47a23.8,23.8,0,1,0-10.55,0V70.14a64.08,64.08,0,0,0-57.08,48.63A352.73,352.73,0,0,1,279.5,114C280.1,114,280.7,113.91,281.3,113.91Z" />
      <path class="cls-1"
        d="M31.83,298c-.88-.07-1.7-.26-2.62-.26A29.22,29.22,0,0,0,0,326.93v30.66A29.21,29.21,0,0,0,29.21,386.8c1,0,2-.2,3-.29A256.26,256.26,0,0,1,31.83,298Z" />
      <path class="cls-1"
        d="M540.37,297.71c-.89,0-1.71.19-2.57.26a261.62,261.62,0,0,1-.37,88.54c1,.09,1.94.29,2.94.29a29.22,29.22,0,0,0,29.21-29.21V326.93A29.23,29.23,0,0,0,540.37,297.71Z" />
      <path class="cls-1"
        d="M527.23,301c-15-98.93-86-153.14-178.42-170.07a369.28,369.28,0,0,0-58.76-5.76c-2.91-.07-5.79-.27-8.75-.27-.6,0-1.2.06-1.8.06a338.33,338.33,0,0,0-58.71,5.4C129,146.88,57.6,202.9,42.38,301a246.49,246.49,0,0,0,.37,82.34C62.19,500.51,162.59,557,281.3,557c122.86,0,226-53.75,245.56-173.64a251,251,0,0,0,.37-82.38ZM286.11,467.36c-95.5,0-143-34.67-143-126.44,0-83.18,39.16-119.33,117.59-125.39,8.09-.62,16.47-1,25.39-1,8,0,15.6.39,22.95,1,77.2,6,117.36,44.12,117.36,125.46C426.42,430,378.4,467.36,286.11,467.36Z" />
      <path class="cls-1"
        d="M346.16,307.86a35.08,35.08,0,1,0,35.08,35.08A35.07,35.07,0,0,0,346.16,307.86Zm0,54.05a19.07,19.07,0,1,1,19.07-19.07A19.07,19.07,0,0,1,346.16,361.91Z" />
      <path class="cls-1"
        d="M229,307.86a35.08,35.08,0,1,0,35.08,35.08A35.07,35.07,0,0,0,229,307.86Zm0,54.05a19.07,19.07,0,1,1,19.07-19.07A19.07,19.07,0,0,1,229,361.91Z" />
    </g>
  </g>
</svg>